<!--Uploaded to: SVG Repo, www.svgrepo.com, Generator: SVG Repo Mixer Tools-->
<svg xmlns="http://www.w3.org/2000/svg" xml:space="preserve" width="800" height="800" viewBox="0 0 596.1 596.1">
  <path d="M66 59v479c0 32 26 58 58 58h348c32 0 58-26 58-58V59c0-32-26-59-58-59H124C92 1 66 27 66 59zm421 0v479c0 8-6 15-15 15H124c-8 0-15-7-15-15V59c0-9 7-16 15-16h348c9 0 15 7 15 16z"/>
  <path d="M472 596H124c-32 0-59-26-59-58V59c0-33 27-59 59-59h348c33 0 59 26 59 59v479c0 32-26 58-59 58zM124 1C92 1 66 27 66 59v479c0 31 26 57 58 57h348c32 0 58-26 58-57V59c0-32-26-58-58-58H124zm348 552H124c-9 0-16-7-16-15V59c0-9 7-16 16-16h348c9 0 16 7 16 16v479c0 8-7 15-16 15zM124 44c-8 0-15 6-15 15v479c0 8 7 14 15 14h348c8 0 15-6 15-14V59c0-9-7-15-15-15H124z"/>
  <path d="M249 416a60 60 0 0 0 98 0l59-83c15-21 15-49 0-69l-60-86a58 58 0 0 0-95 0l-61 86a60 60 0 0 0 0 69l59 83zm-24-128 61-85c3-4 7-7 12-7s10 3 13 7l60 85c4 6 4 14 0 20l-59 83c-3 5-9 8-14 8s-10-3-14-8l-59-83c-4-6-4-14 0-20z"/>
  <path d="M298 442c-19 0-38-10-49-26l-59-83a60 60 0 0 1 0-70l60-85a59 59 0 0 1 96 0l60 85c15 21 15 49 0 70l-59 83a60 60 0 0 1-49 26zm0-288c-19 0-36 9-47 24l-60 86a59 59 0 0 0 0 68l59 84a59 59 0 0 0 97 0l59-84c14-20 14-48 0-68l-61-86a58 58 0 0 0-47-24zm0 245c-6 0-11-3-14-7l-59-84c-5-6-5-14 0-20l60-85c3-5 8-7 13-7s10 2 13 7l60 85c5 6 5 14 0 20l-59 84c-3 4-8 7-14 7zm0-202c-5 0-9 2-12 6l-60 86c-4 5-4 13 0 19l59 83c3 5 8 7 13 7s10-2 14-7l59-83c4-6 4-14 0-19l-61-86c-3-4-7-6-12-6z"/>
</svg>